PathFileType	4	(X/Y/Z)	Patient4_TMGait_0pt2_01_right_14.trc.trc
DataRate	CameraRate	NumFrames	NumMarkers	Units	OrigDataRate	OrigDataStartFrame	OrigNumFrames
42.813455657492	42.813455657492	5	33	mm	42.813455657492	1	       141
Frame#	Time	Sacral			L.Shoulder			Chest			R.Shoulder			Neck			R.ASIS			L.ASIS			R.Thigh.Superior			R.Thigh.Lateral			R.Thigh.Inferior			R.Patella			L.Thigh.Superior			L.Thigh.Lateral			L.Thigh.Inferior			L.Patella			L.Shank.Superior			L.Shank.Lateral			L.Shank.Inferior			R.Shank.Superior			R.Shank.Lateral			R.Shank.Inferior			R.Heel			R.Midfoot.Superior			R.Midfoot.Lateral			R.Toe			L.Heel			L.Midfoot.Lateral			L.Midfoot.Superior			L.Toe			L.Elbow			L.Wrist			R.Elbow			R.Wrist			
		X1	Y1	Z1	X2	Y2	Z2	X3	Y3	Z3	X4	Y4	Z4	X5	Y5	Z5	X6	Y6	Z6	X7	Y7	Z7	X8	Y8	Z8	X9	Y9	Z9	X10	Y10	Z10	X11	Y11	Z11	X12	Y12	Z12	X13	Y13	Z13	X14	Y14	Z14	X15	Y15	Z15	X16	Y16	Z16	X17	Y17	Z17	X18	Y18	Z18	X19	Y19	Z19	X20	Y20	Z20	X21	Y21	Z21	X22	Y22	Z22	X23	Y23	Z23	X24	Y24	Z24	X25	Y25	Z25	X26	Y26	Z26	X27	Y27	Z27	X28	Y28	Z28	X29	Y29	Z29	X30	Y30	Z30	X31	Y31	Z31	X32	Y32	Z32	X33	Y33	Z33	

1	30.800000000000	638.141295220483	987.479065280197	395.024089321396	832.758985758729	1416.882246329926	220.388398856449	925.505253368669	1344.819817013762	385.917866093420	836.677859744716	1416.108126274133	557.100976900229	803.842239456275	1478.818649323613	377.411852186690	865.242552320037	929.623803723945	522.029811433223	863.366332050365	944.005697259265	246.693860276960	939.506069749171	747.727524286486	498.937621171779	889.888314299145	636.136745411228	582.796065709917	974.426965566903	583.824236829970	505.479550334971	985.183794191259	475.467066426173	537.305273687345	926.184541643936	742.142738351876	294.123560697208	856.639034467676	611.125206783195	240.892586702773	945.895935468852	547.811440919984	315.481013504692	952.147923007512	472.358060033994	327.589598107755	910.952566888596	397.336158131935	324.170152762274	807.770943476832	294.916906049701	273.445670267181	832.546289839545	182.258302419243	352.528793121739	909.744142135014	403.865850521737	555.349632673259	792.457864932335	370.123557699800	626.641498626965	777.213454775156	255.793083180120	589.264789837838	574.604878454506	196.270486080475	577.791783710057	744.592037398106	137.754868627363	620.037274968289	635.432548720541	141.712486254572	653.655160665969	807.406662139990	28.763233732174	651.168291133209	681.937687722179	39.682204092881	390.668863886442	759.029964966404	35.810748121376	313.170547928133	842.678264748477	94.909729668015	343.377258337744	971.186878473696	39.782239043517	318.600234289558	866.307207147501	1069.866247839880	89.483290060368	992.956046647406	839.826573212008	118.009720272331	906.375417899654	1066.562973845371	665.246378912938	1104.964661384169	895.485893918207	667.193097609762	
2	30.823357142857	636.461901992978	987.821316558767	390.596749791922	833.152494847619	1417.438887812434	217.600878948151	923.720459050760	1345.511688323550	384.290995422572	832.421718662410	1416.529017781627	554.405823050143	802.256522796389	1479.224242886413	374.550154846377	862.515501642472	930.358908312863	519.370244650865	862.285253132966	943.850679261603	244.044871354703	938.931736988061	750.717152470676	497.287155452598	890.461002949793	638.533104007315	581.486956376277	977.042491129399	587.995113508001	504.942358660812	989.391178187873	479.635411186541	537.108215489085	924.143100808643	741.427707372072	290.659323494612	853.247610407951	610.921438146500	237.909922571134	942.312831410118	547.115908959030	312.188566097089	948.091516947527	471.910244651410	324.535786390872	906.665514038126	397.042176937195	321.565867778275	802.846228387805	294.670412834996	271.401185249857	827.983521007760	182.366535351368	351.325963208008	914.365039130086	407.051583157693	553.826528088130	795.585067313886	371.731195754447	621.565544289249	783.325519541410	257.113385963010	584.541966620801	582.301828458714	191.772543670541	567.499998678343	752.527562467492	139.696189660211	614.801195208950	642.666559908300	140.374020326515	645.633035042204	817.933305255595	32.979293627320	649.529654949023	677.260307780419	39.683589798421	390.571633931157	754.390272625685	35.775522328501	313.041711414803	838.088274172606	94.870347982831	343.020034936121	966.543222280528	39.778993136255	318.586822718798	875.766123936307	1072.826884064806	85.124475324389	1015.941252112590	852.639540412089	114.363745269116	880.573437510276	1064.918731173047	662.589212901219	1056.995419254027	877.106488524599	666.269016564481	
3	30.846714285714	634.799780009551	988.411837323694	386.077538410977	833.628782821496	1418.175658748927	214.802090563317	921.901556963150	1346.443750599821	382.721283788679	828.024994215822	1417.285496551971	551.650392147605	800.630702996444	1479.841511523248	371.605963369603	859.684033077636	931.280017074241	516.759576219504	861.333611610249	943.942067158550	241.468179642626	938.021067541318	753.724024467581	495.676296965164	890.612967723575	640.982483748330	580.125741434237	979.040125293064	592.087938215662	504.337111876558	993.059291390603	483.908752248189	536.854959103446	921.892058652015	740.789490301742	287.276804596727	849.505931068131	610.883809565415	234.918033703705	938.255244908037	546.483085214200	308.889745233724	943.484043719600	471.566461319789	321.455887003457	901.883952389275	396.879911869664	318.921315273083	797.496292110771	294.489561451838	269.353110049012	823.119647190079	182.555978797804	350.101112537924	918.756314599054	410.205210173875	552.329776039115	798.876588841779	372.708241740604	616.753540566549	790.098526189690	257.846463553122	580.040026461716	591.171835836614	185.799542199255	557.829394262654	761.750727599791	140.954523707309	609.785399864538	651.389095598771	137.760749011594	638.061357016609	830.248726712334	36.956523675443	647.798160287911	672.370149752673	39.698189844795	390.466402115185	749.541512741753	35.739319338171	312.916298642060	833.296525646317	94.847520351222	342.649108735469	961.688114642690	39.785108865944	318.578948370947	885.481258994107	1076.142965076539	80.714707593891	1039.552979525573	866.659028022526	110.696607155412	853.673492094801	1064.266739732168	659.963890949118	1007.049764289606	860.128285980176	665.097402012289	
4	30.870071428571	633.220090593247	989.302089000382	381.629122018762	834.200006824591	1419.106831820471	212.112738998453	920.097964570703	1347.650256242908	381.308254809534	823.598289241895	1418.460280856231	548.928639635206	799.011009636726	1480.706761430908	368.677622522310	856.816373033696	932.400668913233	514.340827969012	860.589701712074	944.354165702905	239.110905309912	936.676583362206	756.620019052004	494.200082922777	890.134332740268	643.379529555193	578.773607059916	980.098564864117	595.895682526005	503.690449189747	995.814292847689	488.143419527707	536.550095666478	919.436629028085	740.273063671626	284.150277045084	845.427673337634	611.068778760807	232.043037914274	933.698205093693	545.957612068663	305.728023676273	938.288203415253	471.375443775261	318.482672541270	896.606933350324	396.900680748788	316.340505559704	791.775379907259	294.398886878961	267.385986736591	818.027248189420	182.843942650404	348.901075098626	922.649213819334	413.186670712303	550.942438258297	802.272685179214	372.795561074076	612.509089547896	797.510106310666	257.777686661737	576.035363636272	601.328632807243	178.109614415927	549.405951247015	772.363140773452	141.267748153966	605.271512635727	661.820445946021	133.584140391338	631.424451929456	844.492844582487	40.512695983219	646.035880246178	667.375405344434	39.727525501918	390.354928284524	744.590300685854	35.702596983944	312.799907235882	828.408139713219	94.846397358196	342.277266286739	956.728233941253	39.804892747766	318.579194008156	895.169289384684	1079.797288854080	76.437850246246	1063.040484765280	881.790275644069	107.176191740984	826.362462936364	1065.030082256410	657.449240766240	956.489645697810	845.820922778423	663.620832366330	
5	30.893428571429	631.764282526422	990.503809809664	377.387117433360	834.874431977154	1420.215102226575	209.635459410365	918.339618734933	1349.129902974652	380.138489509083	819.218292271947	1420.089771911523	546.319412216605	797.432942346445	1481.823086807156	365.848713723470	853.958205793302	933.704599493879	512.237144044756	860.092705404842	945.109661929510	237.097504258233	934.828848957645	759.293765028045	492.935606873595	888.870121337946	645.625908608120	577.482974990969	979.991137710276	599.248541490688	503.032125878501	997.379669063239	492.213205388485	536.202164338371	916.785223590913	739.900932041228	281.417934652044	841.034361219890	611.505453631663	229.387342382896	928.633187206901	545.565962690782	302.823240428614	932.487760871929	471.366807551401	315.730749528697	890.848333788000	397.133432524804	313.913298195336	785.741271516716	294.408014048083	265.565523029309	812.764133515953	183.234489625667	347.765628004445	925.845131269321	415.886809480945	549.731813515312	805.733257355935	371.837000638844	609.063822011345	805.521481598347	256.797312036459	572.743524587404	612.839027683186	168.640577039643	542.691825609813	784.385014449997	140.508521500911	601.484002576851	674.079816534835	127.749644213545	626.091990627285	860.667203930123	43.565989137019	644.332687379037	662.357868254202	39.768853994374	390.239662642053	739.616723209900	35.664919483413	312.695275687209	823.500238970009	94.868776296996	341.916287125413	951.744446806747	39.842067784929	318.589381705227	904.614267993271	1083.746247311037	72.454306680227	1085.783237564958	897.926808199714	103.952971755286	799.213790132065	1067.505575790427	655.076157170185	906.512993924730	835.140164803395	661.800751389458	
